<svg aria-hidden="true" style="position: absolute; width: 0; height: 0; overflow: hidden;" version="1.1" xmlns="http://www.w3.org/2000/svg" xmlns:xlink="http://www.w3.org/1999/xlink">
<defs>
<symbol id="icon-facebook" viewBox="0 0 16 16">
<path d="M10.665 2.657h1.46v-2.544c-0.619-0.072-1.336-0.113-2.063-0.113-0.023 0-0.046 0-0.069 0l0.004-0c-2.106 0-3.547 1.325-3.547 3.76v2.24h-2.325v2.844h2.324v7.156h2.849v-7.155h2.23l0.354-2.845h-2.585v-1.96c0.001-0.822 0.222-1.384 1.368-1.384z"></path>
</symbol>
<symbol id="icon-instagram" viewBox="0 0 16 16">
<path d="M15.984 4.704c-0.037-0.85-0.175-1.435-0.372-1.941-0.212-0.556-0.527-1.030-0.924-1.419l-0.001-0.001c-0.39-0.396-0.862-0.709-1.389-0.912l-0.027-0.009c-0.51-0.197-1.090-0.335-1.94-0.372-0.858-0.040-1.131-0.050-3.301-0.050-2.173 0-2.445 0.010-3.298 0.047-0.85 0.037-1.434 0.175-1.94 0.372-0.556 0.212-1.030 0.527-1.419 0.924l-0.001 0.001c-0.396 0.39-0.709 0.862-0.913 1.389l-0.009 0.027c-0.197 0.51-0.334 1.090-0.372 1.94-0.040 0.857-0.050 1.13-0.050 3.301 0 2.173 0.010 2.445 0.047 3.298 0.037 0.85 0.175 1.435 0.372 1.941 0.203 0.538 0.519 1.019 0.925 1.419 0.4 0.406 0.885 0.722 1.416 0.922 0.51 0.197 1.090 0.335 1.941 0.372 0.853 0.038 1.125 0.047 3.298 0.047s2.444-0.010 3.297-0.047c0.85-0.037 1.435-0.175 1.941-0.372 1.078-0.425 1.916-1.263 2.331-2.313l0.010-0.028c0.197-0.51 0.335-1.090 0.372-1.941 0.038-0.853 0.047-1.125 0.047-3.298s-0.003-2.444-0.040-3.297zM14.544 11.236c-0.035 0.782-0.166 1.204-0.276 1.485-0.275 0.7-0.819 1.244-1.501 1.514l-0.018 0.006c-0.281 0.109-0.706 0.24-1.484 0.274-0.844 0.038-1.097 0.047-3.232 0.047s-2.391-0.010-3.232-0.047c-0.782-0.034-1.204-0.165-1.485-0.275-0.36-0.135-0.668-0.338-0.918-0.596l-0.001-0.001c-0.258-0.252-0.462-0.559-0.591-0.902l-0.006-0.017c-0.11-0.281-0.24-0.706-0.275-1.484-0.037-0.844-0.047-1.098-0.047-3.232s0.010-2.391 0.047-3.232c0.035-0.782 0.166-1.204 0.275-1.485 0.128-0.347 0.332-0.662 0.6-0.919 0.26-0.266 0.572-0.469 0.92-0.597 0.28-0.11 0.706-0.24 1.484-0.275 0.844-0.037 1.097-0.047 3.232-0.047 2.138 0 2.39 0.010 3.232 0.047 0.781 0.035 1.203 0.166 1.484 0.275 0.347 0.128 0.663 0.331 0.92 0.597 0.265 0.26 0.468 0.572 0.596 0.92 0.11 0.28 0.241 0.705 0.275 1.484 0.038 0.844 0.047 1.097 0.047 3.232s-0.009 2.385-0.046 3.228z"></path>
<path d="M8.030 3.891c-2.231 0.051-4.020 1.871-4.020 4.11s1.789 4.059 4.016 4.11l0.005 0c2.231-0.051 4.020-1.871 4.020-4.11s-1.789-4.059-4.016-4.11l-0.005-0zM8.030 10.668c-1.473 0-2.667-1.194-2.667-2.667s1.194-2.667 2.667-2.667v0c1.473 0 2.667 1.194 2.667 2.667s-1.194 2.667-2.667 2.667v0zM13.262 3.729c0 0.53-0.43 0.96-0.96 0.96s-0.96-0.43-0.96-0.96v0c0-0.53 0.43-0.96 0.96-0.96s0.96 0.43 0.96 0.96v0z"></path>
</symbol>
<symbol id="icon-linkedin" viewBox="0 0 16 16">
<path d="M15.996 16h0.004v-5.87c0-2.87-0.618-5.082-3.974-5.082-1.613 0-2.696 0.886-3.138 1.725h-0.047v-1.456h-3.181v10.683h3.314v-5.29c0-1.392 0.264-2.738 1.988-2.738 1.7 0 1.725 1.589 1.725 2.828v5.2h3.31zM0.264 5.318h3.317v10.682h-3.317v-10.682zM1.921 0c-1.060 0-1.921 0.86-1.921 1.92s0.86 1.94 1.921 1.94 1.922-0.88 1.922-1.94c-0.001-1.059-0.863-1.92-1.923-1.92z"></path>
</symbol>
<symbol id="icon-twitter" viewBox="0 0 16 16">
<path d="M16 3.039c-0.55 0.247-1.188 0.429-1.856 0.514l-0.034 0.004c0.68-0.408 1.191-1.039 1.436-1.79l0.007-0.023c-0.599 0.361-1.296 0.637-2.038 0.787l-0.042 0.007c-0.6-0.639-1.45-1.038-2.394-1.038-1.811 0-3.28 1.468-3.28 3.28v0c0 0.26 0.022 0.51 0.076 0.748-2.734-0.138-5.139-1.439-6.748-3.414l-0.013-0.017c-0.281 0.474-0.448 1.045-0.448 1.655 0 1.132 0.573 2.13 1.444 2.721l0.012 0.007c-0.546-0.015-1.054-0.162-1.498-0.411l0.016 0.008v0.036c0.002 1.582 1.118 2.903 2.606 3.219l0.022 0.004c-0.25 0.069-0.538 0.108-0.834 0.108-0.009 0-0.018-0-0.027-0l0.001 0c-0.015 0-0.033 0-0.052 0-0.202 0-0.398-0.021-0.588-0.060l0.019 0.003c0.436 1.312 1.637 2.248 3.061 2.285l0.004 0c-1.107 0.872-2.522 1.399-4.060 1.399-0.003 0-0.005 0-0.008 0h0c-0.269 0-0.527-0.012-0.785-0.045 1.413 0.923 3.143 1.472 5.002 1.472 0.011 0 0.021-0 0.032-0h-0.002c6.036 0 9.336-5 9.336-9.334 0-0.145-0.005-0.285-0.012-0.424 0.649-0.468 1.195-1.033 1.629-1.679l0.015-0.024z"></path>
</symbol>
</defs>
</svg>
